<svg width="916" height="782" viewBox="0 0 916 782" fill="none" xmlns="http://www.w3.org/2000/svg">
<path d="M150 406H766" stroke="white" stroke-width="5"/>
<path d="M150 548H766" stroke="white" stroke-width="5"/>
<path d="M93.2 513.1C87.3333 513.1 81.87 512.147 76.81 510.24C71.8233 508.26 67.46 505.51 63.72 501.99C60.0533 498.397 57.1933 494.18 55.14 489.34C53.0867 484.5 52.06 479.22 52.06 473.5C52.06 467.78 53.0867 462.5 55.14 457.66C57.1933 452.82 60.09 448.64 63.83 445.12C67.57 441.527 71.9333 438.777 76.92 436.87C81.9067 434.89 87.37 433.9 93.31 433.9C99.6167 433.9 105.373 435 110.58 437.2C115.787 439.327 120.187 442.517 123.78 446.77L114.54 455.46C111.753 452.453 108.637 450.217 105.19 448.75C101.743 447.21 98.0033 446.44 93.97 446.44C89.9367 446.44 86.2333 447.1 82.86 448.42C79.56 449.74 76.6633 451.61 74.17 454.03C71.75 456.45 69.8433 459.31 68.45 462.61C67.13 465.91 66.47 469.54 66.47 473.5C66.47 477.46 67.13 481.09 68.45 484.39C69.8433 487.69 71.75 490.55 74.17 492.97C76.6633 495.39 79.56 497.26 82.86 498.58C86.2333 499.9 89.9367 500.56 93.97 500.56C98.0033 500.56 101.743 499.827 105.19 498.36C108.637 496.82 111.753 494.51 114.54 491.43L123.78 500.23C120.187 504.41 115.787 507.6 110.58 509.8C105.373 512 99.58 513.1 93.2 513.1ZM146.116 512V461.62L149.306 464.92H125.436V453.26H180.436V464.92H156.676L159.866 461.62V512H146.116ZM222.97 512.77C218.203 512.77 213.84 511.67 209.88 509.47C205.993 507.27 202.877 503.97 200.53 499.57C198.257 495.097 197.12 489.45 197.12 482.63C197.12 475.737 198.22 470.09 200.42 465.69C202.693 461.29 205.773 458.027 209.66 455.9C213.547 453.7 217.983 452.6 222.97 452.6C228.763 452.6 233.86 453.847 238.26 456.34C242.733 458.833 246.253 462.317 248.82 466.79C251.46 471.263 252.78 476.543 252.78 482.63C252.78 488.717 251.46 494.033 248.82 498.58C246.253 503.053 242.733 506.537 238.26 509.03C233.86 511.523 228.763 512.77 222.97 512.77ZM190.41 533.34V453.26H203.5V467.12L203.06 482.74L204.16 498.36V533.34H190.41ZM221.43 501C224.73 501 227.663 500.267 230.23 498.8C232.87 497.333 234.96 495.207 236.5 492.42C238.04 489.633 238.81 486.37 238.81 482.63C238.81 478.817 238.04 475.553 236.5 472.84C234.96 470.053 232.87 467.927 230.23 466.46C227.663 464.993 224.73 464.26 221.43 464.26C218.13 464.26 215.16 464.993 212.52 466.46C209.88 467.927 207.79 470.053 206.25 472.84C204.71 475.553 203.94 478.817 203.94 482.63C203.94 486.37 204.71 489.633 206.25 492.42C207.79 495.207 209.88 497.333 212.52 498.8C215.16 500.267 218.13 501 221.43 501ZM292.645 512.77C286.631 512.77 281.278 511.487 276.585 508.92C271.891 506.28 268.188 502.687 265.475 498.14C262.761 493.593 261.405 488.423 261.405 482.63C261.405 476.763 262.761 471.593 265.475 467.12C268.188 462.573 271.891 459.017 276.585 456.45C281.278 453.883 286.631 452.6 292.645 452.6C298.731 452.6 304.121 453.883 308.815 456.45C313.581 459.017 317.285 462.537 319.925 467.01C322.638 471.483 323.995 476.69 323.995 482.63C323.995 488.423 322.638 493.593 319.925 498.14C317.285 502.687 313.581 506.28 308.815 508.92C304.121 511.487 298.731 512.77 292.645 512.77ZM292.645 501C296.018 501 299.025 500.267 301.665 498.8C304.305 497.333 306.358 495.207 307.825 492.42C309.365 489.633 310.135 486.37 310.135 482.63C310.135 478.817 309.365 475.553 307.825 472.84C306.358 470.053 304.305 467.927 301.665 466.46C299.025 464.993 296.055 464.26 292.755 464.26C289.381 464.26 286.375 464.993 283.735 466.46C281.168 467.927 279.115 470.053 277.575 472.84C276.035 475.553 275.265 478.817 275.265 482.63C275.265 486.37 276.035 489.633 277.575 492.42C279.115 495.207 281.168 497.333 283.735 498.8C286.375 500.267 289.345 501 292.645 501ZM337.578 512V453.26H351.328V491.98L383.778 453.26H396.318V512H382.568V473.28L350.228 512H337.578ZM366.068 446.33C360.201 446.33 355.691 444.973 352.538 442.26C349.385 439.473 347.771 435.44 347.698 430.16H356.828C356.901 432.8 357.708 434.89 359.248 436.43C360.861 437.97 363.098 438.74 365.958 438.74C368.745 438.74 370.945 437.97 372.558 436.43C374.245 434.89 375.125 432.8 375.198 430.16H384.548C384.475 435.44 382.825 439.473 379.598 442.26C376.445 444.973 371.935 446.33 366.068 446.33ZM427.613 478.56V467.23H467.323V478.56H427.613ZM437.623 433.9C443.27 433.9 448.476 434.89 453.243 436.87C458.01 438.777 462.153 441.527 465.673 445.12C469.266 448.64 472.016 452.82 473.923 457.66C475.903 462.5 476.893 467.78 476.893 473.5C476.893 479.22 475.903 484.5 473.923 489.34C472.016 494.18 469.266 498.397 465.673 501.99C462.153 505.51 458.01 508.26 453.243 510.24C448.476 512.147 443.27 513.1 437.623 513.1C431.096 513.1 425.156 512 419.803 509.8C414.523 507.6 410.123 504.41 406.603 500.23L415.623 491.43C418.483 494.51 421.673 496.82 425.193 498.36C428.786 499.827 432.673 500.56 436.853 500.56C440.52 500.56 443.93 499.9 447.083 498.58C450.236 497.187 452.95 495.317 455.223 492.97C457.496 490.55 459.256 487.69 460.503 484.39C461.75 481.09 462.373 477.46 462.373 473.5C462.373 469.54 461.75 465.91 460.503 462.61C459.256 459.31 457.496 456.487 455.223 454.14C452.95 451.72 450.236 449.85 447.083 448.53C443.93 447.137 440.52 446.44 436.853 446.44C432.673 446.44 428.786 447.21 425.193 448.75C421.673 450.217 418.483 452.49 415.623 455.57L406.603 446.77C410.123 442.59 414.523 439.4 419.803 437.2C425.156 435 431.096 433.9 437.623 433.9ZM533.429 512L512.199 483.84L523.419 476.91L549.599 512H533.429ZM491.299 512V453.26H505.049V512H491.299ZM500.979 488.46V477.02H520.889V488.46H500.979ZM524.739 484.28L511.869 482.74L533.429 453.26H548.169L524.739 484.28ZM583.543 512.77C577.53 512.77 572.176 511.487 567.483 508.92C562.79 506.28 559.086 502.687 556.373 498.14C553.66 493.593 552.303 488.423 552.303 482.63C552.303 476.763 553.66 471.593 556.373 467.12C559.086 462.573 562.79 459.017 567.483 456.45C572.176 453.883 577.53 452.6 583.543 452.6C589.63 452.6 595.02 453.883 599.713 456.45C604.48 459.017 608.183 462.537 610.823 467.01C613.536 471.483 614.893 476.69 614.893 482.63C614.893 488.423 613.536 493.593 610.823 498.14C608.183 502.687 604.48 506.28 599.713 508.92C595.02 511.487 589.63 512.77 583.543 512.77ZM583.543 501C586.916 501 589.923 500.267 592.563 498.8C595.203 497.333 597.256 495.207 598.723 492.42C600.263 489.633 601.033 486.37 601.033 482.63C601.033 478.817 600.263 475.553 598.723 472.84C597.256 470.053 595.203 467.927 592.563 466.46C589.923 464.993 586.953 464.26 583.653 464.26C580.28 464.26 577.273 464.993 574.633 466.46C572.066 467.927 570.013 470.053 568.473 472.84C566.933 475.553 566.163 478.817 566.163 482.63C566.163 486.37 566.933 489.633 568.473 492.42C570.013 495.207 572.066 497.333 574.633 498.8C577.273 500.267 580.243 501 583.543 501ZM680.629 505.4V447.1H650.489L649.939 460.74C649.719 465.873 649.389 470.75 648.949 475.37C648.583 479.917 647.959 484.06 647.079 487.8C646.273 491.54 645.136 494.657 643.669 497.15C642.203 499.643 640.406 501.293 638.279 502.1L622.879 499.9C625.666 500.047 627.939 499.093 629.699 497.04C631.533 494.987 632.963 492.127 633.989 488.46C635.016 484.793 635.786 480.503 636.299 475.59C636.813 470.603 637.179 465.213 637.399 459.42L638.279 435H694.709V505.4H680.629ZM620.239 528.39L620.349 499.9H705.819V528.39H692.619V512H633.549V528.39H620.239ZM742.957 512.77C736.944 512.77 731.59 511.487 726.897 508.92C722.204 506.28 718.5 502.687 715.787 498.14C713.074 493.593 711.717 488.423 711.717 482.63C711.717 476.763 713.074 471.593 715.787 467.12C718.5 462.573 722.204 459.017 726.897 456.45C731.59 453.883 736.944 452.6 742.957 452.6C749.044 452.6 754.434 453.883 759.127 456.45C763.894 459.017 767.597 462.537 770.237 467.01C772.95 471.483 774.307 476.69 774.307 482.63C774.307 488.423 772.95 493.593 770.237 498.14C767.597 502.687 763.894 506.28 759.127 508.92C754.434 511.487 749.044 512.77 742.957 512.77ZM742.957 501C746.33 501 749.337 500.267 751.977 498.8C754.617 497.333 756.67 495.207 758.137 492.42C759.677 489.633 760.447 486.37 760.447 482.63C760.447 478.817 759.677 475.553 758.137 472.84C756.67 470.053 754.617 467.927 751.977 466.46C749.337 464.993 746.367 464.26 743.067 464.26C739.694 464.26 736.687 464.993 734.047 466.46C731.48 467.927 729.427 470.053 727.887 472.84C726.347 475.553 725.577 478.817 725.577 482.63C725.577 486.37 726.347 489.633 727.887 492.42C729.427 495.207 731.48 497.333 734.047 498.8C736.687 500.267 739.657 501 742.957 501ZM787.89 512V453.26H802.3L825.95 494.95H820.23L845.09 453.26H857.96L858.07 512H845.64V468L847.84 469.43L825.84 505.84H819.9L797.79 468.44L800.43 467.78V512H787.89Z" fill="white"/>
<path d="M442 166V364.5M469 210.5V391.5" stroke="#AB5413" stroke-width="5"/>
<path d="M593.882 347.321H401M624 365H401M582.527 325.04L388 220M582.527 304.784L389 202.5" stroke="#AB5413" stroke-width="4.5"/>
<path d="M321.095 252.476V355.5H390V307.329" stroke="#AB5413" stroke-width="23.5"/>
<path d="M292 274.5V256L309.5 246.5L314 264L292 274.5Z" fill="#AB5413" stroke="#AB5413" stroke-width="5"/>
<path d="M369 214L307.5 247.5L310.518 265.5L377 228.721L369 214Z" fill="#AB5413" stroke="#AB5413" stroke-width="5"/>
<path d="M371 213L387.51 204.5L388 222L378.204 228L368.898 233L365.959 234.5L371 213Z" fill="#AB5413" stroke="#AB5413" stroke-width="5"/>
</svg>
